Complete name : Shaolin Soccer [2001] [DVDrip] [Dual Audio] [Eng-Hindi] - {RAVI}.mkv
Format : Matroska
Format version : Version 2
File size : 772 MiB
Duration : 1h 25mn
Overall bit rate mode : Variable
Overall bit rate : 1 260 Kbps
Movie name : Shaolin Soccer [2001] [DVDrip] [Dual Audio] [Eng-Hindi] - {RAVI}
Encoded date : UTC 2012-01-04 09:03:11
Writing application : mkvmerge v5.2.0 (\'I can\'t explain\') built on Dec 18 2011 18:12:03
Writing library : libebml v1.2.3 + libmatroska v1.3.0

Video
ID : 1
Format : MPEG-4 Visual
Format profile : Advanced Simple@L5
Format settings, BVOP : Yes
Format settings, QPel : No
Format settings, GMC : No warppoints
Format settings, Matrix : Custom
Codec ID : XVID
Codec ID/Hint : XviD
Duration : 1h 25mn
Bit rate : 993 Kbps
Width : 608 pixels
Height : 336 pixels
Display aspect ratio : 16:9
Frame rate : 25.000 fps
Color space : YUV
Chroma subsampling : 4:2:0
Bit depth : 8 bits
Scan type : Progressive
Compression mode : Lossy
Bits/(Pixel*Frame) : 0.194
Stream size : 608 MiB (79%)
Title : Shaolin Soccer [2001] [DVDrip] [Dual Audio] [Eng-Hindi] - {RAVI}
Writing library : XviD 1.2.1 (UTC 2008-12-04)
Language : English

Audio #1
ID : 2
Format : MPEG Audio
Format version : Version 1
Format profile : Layer 3
Mode : Joint stereo
Muxing mode : Header stripping
Codec ID : A_MPEG/L3
Codec ID/Hint : MP3
Duration : 1h 25mn
Bit rate mode : Constant
Bit rate : 128 Kbps
Channel(s) : 2 channels
Sampling rate : 48.0 KHz
Compression mode : Lossy
Stream size : 78.4 MiB (10%)
Title : Shaolin Soccer [2001] [DVDrip] - {RAVI} - HINDI
Language : Hindi

Audio #2
ID : 3
Format : MPEG Audio
Format version : Version 1
Format profile : Layer 3
Mode : Joint stereo
Mode extension : MS Stereo
Muxing mode : Header stripping
Codec ID : A_MPEG/L3
Codec ID/Hint : MP3
Duration : 1h 25mn
Bit rate mode : Variable
Bit rate : 115 Kbps
Nominal bit rate : 128 Kbps
Channel(s) : 2 channels
Sampling rate : 48.0 KHz
Compression mode : Lossy
Stream size : 70.1 MiB (9%)
Title : Shaolin Soccer [2001] [DVDrip] - {RAVI} - ENGLISH
Writing library : LAME3.98r
Encoding settings : -m j -V 4 -q 2 -lowpass 17 --abr 128
Language : English


Screens
 
http://i1198.photobucket.com/albums/aa452/stifler151991/Shaolin%20Soccer/1.jpg
 
http://i1198.photobucket.com/albums/aa452/stifler151991/Shaolin%20Soccer/2.jpg
 
http://i1198.photobucket.com/albums/aa452/stifler151991/Shaolin%20Soccer/3.jpg
 
http://i1198.photobucket.com/albums/aa452/stifler151991/Shaolin%20Soccer/4.jpg
 
http://i1198.photobucket.com/albums/aa452/stifler151991/Shaolin%20Soccer/5.jpg
 
http://i1198.photobucket.com/albums/aa452/stifler151991/Shaolin%20Soccer/7.jpg
 
http://i1198.photobucket.com/albums/aa452/stifler151991/Shaolin%20Soccer/8.jpg
 
http://i1198.photobucket.com/albums/aa452/stifler151991/Shaolin%20Soccer/9.jpg
 
http://i1198.photobucket.com/albums/aa452/stifler151991/Shaolin%20Soccer/10.jpg



Thanks To Ravi